<?xml version="1.0" encoding="UTF-8" standalone="no"?>
<svg
   width="116"
   height="132"
   viewBox="0 0 116 132"
   fill="none"
   version="1.1"
   id="svg14"
   sodipodi:docname="logo.svg"
   inkscape:version="1.2.2 (b0a8486541, 2022-12-01)"
   xmlns:inkscape="http://www.inkscape.org/namespaces/inkscape"
   xmlns:sodipodi="http://sodipodi.sourceforge.net/DTD/sodipodi-0.dtd"
   xmlns="http://www.w3.org/2000/svg"
   xmlns:svg="http://www.w3.org/2000/svg">
  <defs
     id="defs18" />
  <sodipodi:namedview
     id="namedview16"
     pagecolor="#ffffff"
     bordercolor="#111111"
     borderopacity="1"
     inkscape:showpageshadow="0"
     inkscape:pageopacity="0"
     inkscape:pagecheckerboard="1"
     inkscape:deskcolor="#d1d1d1"
     showgrid="false"
     inkscape:zoom="3.2734375"
     inkscape:cx="51.322196"
     inkscape:cy="76.066826"
     inkscape:window-width="1920"
     inkscape:window-height="1008"
     inkscape:window-x="0"
     inkscape:window-y="0"
     inkscape:window-maximized="1"
     inkscape:current-layer="svg14" />
  <circle
     cx="20"
     cy="40"
     r="16"
     fill="#0e9f6e"
     id="circle2" />
  <circle
     cx="60"
     cy="16"
     r="16"
     fill="#fbbf24"
     id="circle4" />
  <circle
     cx="100"
     cy="40"
     r="16"
     fill="#dc2626"
     id="circle6" />
  <path
     d="M 12,124 C 5.373,124 0,118.627 0,112 V 97.778 c 0,-2.235 0.596,-4.435 1.727,-6.36 l 18.17,-31.242 c 2.234,-3.843 7.403,-4.874 10.986,-2.14 l 18.303,13.936 c 2.32,1.765 5.557,1.765 7.877,0 L 75.366,58.036 c 3.583,-2.734 8.752,-1.703 10.986,2.14 l 18.17,31.242 c 1.131,1.925 1.727,4.125 1.727,6.36 V 112 c 0,6.627 -5.373,12 -12,12 z"
     fill="#223874"
     id="path8" />
  <path
     d="m 36,116 c 0,-6.627 10.745,-12 24,-12 13.255,0 24,5.373 24,12 0,6.627 -10.745,12 -24,12 -13.255,0 -24,-5.373 -24,-12 z"
     fill="#223874"
     id="path10" />
  <path
     d="m 36,116 c 0,-6.627 10.745,-12 24,-12 13.255,0 24,5.373 24,12 0,6.627 -10.745,12 -24,12 -13.255,0 -24,-5.373 -24,-12 z"
     stroke="#ffffff"
     stroke-width="8"
     stroke-linecap="round"
     stroke-linejoin="round"
     id="path12" />
</svg>
